<?xml version="1.0" standalone="no"?>
<!DOCTYPE svg PUBLIC "-//W3C//DTD SVG 20010904//EN"
 "http://www.w3.org/TR/2001/REC-SVG-20010904/DTD/svg10.dtd">
<svg version="1.0" xmlns="http://www.w3.org/2000/svg"
 width="96.000000pt" height="96.000000pt" viewBox="0 0 96.000000 96.000000"
 preserveAspectRatio="xMidYMid meet">

<g transform="translate(0.000000,96.000000) scale(0.100000,-0.100000)"
fill="#000000" stroke="none">
<path d="M506 803 c-7 -7 92 -113 105 -113 6 0 59 86 59 96 0 2 -3 4 -7 4 -5
0 -17 -18 -27 -40 -11 -22 -23 -40 -27 -40 -4 0 -27 22 -52 50 -24 27 -47 46
-51 43z"/>
<path d="M222 638 c-18 -18 -17 -341 2 -357 9 -8 78 -11 227 -9 l214 3 0 185
0 185 -215 3 c-159 2 -219 -1 -228 -10z m428 -33 c0 -14 -5 -25 -12 -25 -7 0
-5 -5 5 -12 20 -15 17 -65 -4 -79 -10 -6 -11 -9 -1 -9 10 0 12 -22 10 -92 l-3
-93 -202 -3 c-112 -1 -203 1 -203 5 0 5 90 7 200 5 l200 -3 0 84 0 83 -42 -2
c-40 -1 -45 -5 -73 -53 -16 -28 -35 -51 -42 -51 -6 0 -16 23 -23 51 -16 64
-41 65 -52 0 -8 -46 -14 -58 -24 -48 -3 3 -2 26 4 51 8 40 7 46 -7 47 -9 0
-25 2 -36 4 -11 2 -39 6 -62 10 -48 7 -70 26 -50 44 9 7 13 29 12 61 l-3 50
204 0 204 0 0 -25z"/>
<path d="M475 452 c3 -8 5 -22 5 -33 0 -27 13 -23 33 10 22 37 22 36 -13 36
-21 0 -29 -4 -25 -13z"/>
<path d="M700 613 c0 -10 57 -9 67 0 3 4 -10 7 -30 7 -20 0 -37 -3 -37 -7z"/>
<path d="M708 583 c12 -2 32 -2 45 0 12 2 2 4 -23 4 -25 0 -35 -2 -22 -4z"/>
<path d="M718 563 c12 -2 30 -2 40 0 9 3 -1 5 -23 4 -22 0 -30 -2 -17 -4z"/>
<path d="M718 533 c12 -2 30 -2 40 0 9 3 -1 5 -23 4 -22 0 -30 -2 -17 -4z"/>
<path d="M708 513 c12 -2 32 -2 45 0 12 2 2 4 -23 4 -25 0 -35 -2 -22 -4z"/>
<path d="M700 490 c0 -5 14 -10 30 -10 17 0 30 5 30 10 0 6 -13 10 -30 10 -16
0 -30 -4 -30 -10z"/>
<path d="M711 436 c-15 -18 -3 -46 20 -46 25 0 35 26 19 45 -15 19 -24 19 -39
1z"/>
<path d="M940 290 c-2 -47 -5 -68 -7 -47 l-4 37 -64 0 c-56 0 -64 2 -58 17 4
11 3 14 -5 9 -7 -4 -12 -13 -12 -20 0 -7 -12 -23 -26 -37 l-26 -24 -258 0
-258 0 -26 24 c-18 17 -27 36 -28 60 l-1 36 -4 -32 -4 -33 -64 0 c-58 0 -64 2
-68 23 l-4 22 -2 -22 c0 -13 -5 -23 -11 -23 -6 0 -10 -51 -10 -134 0 -130 1
-134 23 -140 29 -8 901 -8 921 0 14 5 16 26 15 133 -1 69 -4 151 -9 181 l-7
55 -3 -85z"/>
<path d="M704 345 c-4 -9 -2 -21 4 -27 16 -16 47 -5 47 17 0 26 -42 34 -51 10z"/>
</g>
</svg>
