<?xml version="1.0" standalone="no"?>
<!DOCTYPE svg PUBLIC "-//W3C//DTD SVG 20010904//EN"
 "http://www.w3.org/TR/2001/REC-SVG-20010904/DTD/svg10.dtd">
<svg version="1.0" xmlns="http://www.w3.org/2000/svg"
 width="96.000000pt" height="96.000000pt" viewBox="0 0 96.000000 96.000000"
 preserveAspectRatio="xMidYMid meet">

<g transform="translate(0.000000,96.000000) scale(0.100000,-0.100000)"
fill="#000000" stroke="none">
<path d="M0 480 l0 -480 480 0 480 0 0 480 0 480 -480 0 -480 0 0 -480z m678
367 c18 -10 51 -36 73 -59 61 -63 72 -115 67 -321 -4 -189 -8 -205 -70 -264
-57 -55 -90 -63 -263 -63 -172 0 -197 6 -260 61 -67 59 -75 89 -75 294 0 169
2 183 24 231 25 54 85 105 156 131 55 20 305 13 348 -10z"/>
<path d="M300 738 c-76 -39 -90 -75 -90 -246 0 -153 3 -166 54 -221 28 -31 28
-32 5 -15 -15 10 -37 34 -50 53 -22 32 -24 45 -26 185 -2 189 -1 178 -13 171
-14 -9 -13 -318 1 -365 6 -21 23 -51 36 -66 l25 -29 -21 32 c-12 17 -21 39
-21 49 0 14 8 11 38 -17 77 -74 111 -84 177 -52 31 15 37 15 45 3 6 -8 10 -11
10 -6 0 5 6 3 14 -3 19 -16 158 21 202 54 54 41 64 76 64 232 0 165 -14 202
-90 241 -39 20 -59 22 -180 22 -121 0 -141 -2 -180 -22z m180 -62 c0 -41 4
-48 57 -95 32 -29 70 -70 85 -93 16 -22 28 -36 28 -31 0 6 -9 22 -20 36 -16
20 -20 40 -20 101 l0 76 41 0 c36 0 41 -3 55 -35 19 -46 19 -223 0 -269 -23
-55 -69 -80 -153 -85 -73 -3 -73 -3 -73 23 0 22 5 26 27 26 40 0 73 36 73 80
0 42 -15 59 -104 115 -37 24 -63 48 -69 66 -6 16 -17 29 -24 29 -18 0 -43 -42
-48 -83 -4 -29 -2 -35 10 -31 8 4 15 1 15 -5 0 -6 -4 -11 -10 -11 -16 0 -12
-60 5 -66 8 -4 12 -11 8 -17 -4 -6 0 -8 8 -5 61 23 59 24 59 -41 0 -34 0 -64
0 -68 0 -5 -14 -9 -32 -11 -42 -3 -105 33 -135 77 -20 30 -23 46 -23 133 0
113 14 155 63 190 26 19 51 24 165 37 8 1 12 -14 12 -43z m-4 -208 c76 -48
104 -78 72 -78 -14 0 -160 89 -170 104 -7 10 -2 26 9 26 3 0 43 -24 89 -52z"/>
<path d="M185 729 c-4 -6 -5 -12 -2 -15 2 -3 7 2 10 11 7 17 1 20 -8 4z"/>
</g>
</svg>
